#!OML:ASF F:\VICON\USERDATA\INSTALL\rory3\rory3.ASF
:FULLY-SPECIFIED
:DEGREES
4055
root -4.44687 14.2919 -14.3416 -623.861 -87.2799 624.62
lowerback 13.4004 4.07588 -3.326
upperback -2.29605 5.0657 1.85478
thorax -10.5029 2.68674 2.74252
lowerneck -11.9563 -4.96377 -1.1001
upperneck 19.1394 -7.12589 1.4087
head 7.97874 -3.40535 -0.103719
rclavicle -9.31803e-016 2.13694e-015
rhumerus -22.0435 18.6942 -83.4804
rradius 48.8735
rwrist -30.0458
rhand -13.1288 15.5471
rfingers 7.12502
rthumb 12.9691 -14.0298
lclavicle -9.31803e-016 2.13694e-015
lhumerus 51.2145 -39.9776 39.92
lradius 76.0321
lwrist 45.9905
lhand 7.3664 24.343
lfingers 7.12502
lthumb 32.6244 51.4217
rfemur 21.1378 0.842959 13.0171
rtibia 21.2741
rfoot -36.9976 -25.3129
rtoes -27.4913
lfemur -47.4513 2.31336 -16.763
ltibia 74.9064
lfoot -23.1332 -4.64615
ltoes -7.40137
4056
root -4.45411 14.2886 -14.3364 -624.466 -87.193 625.239
lowerback 13.3898 4.08289 -3.23824
upperback -2.31934 5.0928 1.87797
thorax -10.5189 2.69569 2.71198
lowerneck -11.8599 -4.95335 -1.08384
upperneck 19.1389 -7.10965 1.3737
head 7.95899 -3.4016 -0.113287
rclavicle -4.395e-016 -8.74653e-015
rhumerus -21.856 18.2688 -83.5126
rradius 48.6777
rwrist -30.3285
rhand -12.4829 15.6033
rfingers 7.12502
rthumb 13.5916 -13.9331
lclavicle -4.395e-016 -8.74653e-015
lhumerus 51.0884 -39.906 40.1213
lradius 75.8396
lwrist 45.5835
lhand 7.98732 24.1908
lfingers 7.12502
lthumb 33.215 51.1454
rfemur 21.2254 0.881056 13.1156
rtibia 21.1628
rfoot -36.9182 -25.3182
rtoes -27.7159
lfemur -47.4928 2.31037 -16.6828
ltibia 74.9883
lfoot -23.2167 -4.89137
ltoes -6.90673
4057
root -4.45918 14.2871 -14.334 -625.794 -87.1257 626.605
lowerback 13.395 4.08129 -3.24491
upperback -2.34398 5.09518 1.93338
thorax -10.556 2.70001 2.77412
lowerneck -11.9166 -4.9381 -1.25524
upperneck 19.2148 -7.07464 1.45749
head 8.00378 -3.38765 -0.0575456
rclavicle 6.77514e-014 -9.79014e-015
rhumerus -21.6357 17.9036 -83.597
rradius 48.4696
rwrist -30.158
rhand -12.2234 15.5824
rfingers 7.12502
rthumb 13.8417 -13.937
lclavicle 6.77514e-014 -9.79014e-015
lhumerus 51.1228 -39.9584 39.9051
lradius 76.1063
lwrist 46.1302
lhand 7.04762 24.8731
lfingers 7.12502
lthumb 32.321 52.0141
rfemur 21.2406 0.845973 13.2096
rtibia 21.1178
rfoot -36.7049 -25.5998
rtoes -28.2842
lfemur -47.5622 2.16084 -16.6143
ltibia 75.0411
lfoot -23.3851 -5.37608
ltoes -6.47754
4058
root -4.46294 14.2873 -14.3278 -627.012 -87.126 627.877
lowerback 13.3589 4.11891 -3.28001
upperback -2.36023 5.14417 1.96628
thorax -10.5642 2.72733 2.81949
lowerneck -11.9797 -4.95674 -1.35652
upperneck 19.2473 -7.0843 1.48012
head 8.0308 -3.3957 -0.0371454
rclavicle 4.87178e-014 1.51076e-014
rhumerus -21.904 18.5096 -83.6579
rradius 48.9093
rwrist -30.4968
rhand -12.7516 15.2811
rfingers 7.12502
rthumb 13.3327 -14.2724
lclavicle 4.87178e-014 1.51076e-014
lhumerus 51.2908 -40.0892 39.6174
lradius 76.4345
lwrist 46.8667
lhand 5.67515 25.5751
lfingers 7.12502
lthumb 31.0137 52.9739
rfemur 21.2156 0.718932 13.1592
rtibia 21.132
rfoot -36.6731 -25.6851
rtoes -28.6206
lfemur -47.6319 2.11449 -16.6501
ltibia 75.0571
lfoot -23.5053 -5.82505
ltoes -6.16984
4059
root -4.46862 14.2897 -14.317 -627.744 -87.4145 628.672
lowerback 13.3122 4.17641 -3.52832
upperback -2.37097 5.1736 1.88886
thorax -10.5678 2.75444 2.87002
lowerneck -12.0591 -5.02756 -1.4829
upperneck 19.3109 -7.17456 1.55767
head 8.07568 -3.43817 -0.00440573
rclavicle -6.727e-014 -2.54444e-014
rhumerus -22.0768 18.9742 -83.7199
rradius 49.1742
rwrist -31.0341
rhand -13.0791 15.2271
rfingers 7.12502
rthumb 13.017 -14.3467
lclavicle -6.727e-014 -2.54444e-014
lhumerus 51.3904 -40.1578 39.4987
lradius 76.5708
lwrist 47.0011
lhand 5.22413 25.9554
lfingers 7.12502
lthumb 30.5837 53.4354
rfemur 21.2054 0.536819 12.7062
rtibia 21.1207
rfoot -36.5503 -25.5356
rtoes -28.7899
lfemur -47.6218 1.98225 -17.0227
ltibia 75.0024
lfoot -23.2852 -5.58464
ltoes -4.85199
4060
root -4.47134 14.2896 -14.3084 -629.804 -87.5755 630.765
lowerback 13.2974 4.2169 -3.64035
upperback -2.35367 5.20286 1.82304
thorax -10.5467 2.77243 2.85587
lowerneck -12.1763 -5.09967 -1.62059
upperneck 19.4184 -7.27931 1.69681
head 8.14554 -3.48152 0.0468189
rclavicle 1.52226e-014 1.59028e-015
rhumerus -21.8624 18.5788 -83.8386
rradius 48.9929
rwrist -30.7273
rhand -13.0763 15.056
rfingers 7.12502
rthumb 13.0196 -14.5177
lclavicle 1.52226e-014 1.59028e-015
lhumerus 51.5536 -40.1865 39.3553
lradius 76.6042
lwrist 46.6965
lhand 5.25698 25.7676
lfingers 7.12502
lthumb 30.6151 53.2417
rfemur 21.2357 0.376482 12.4368
rtibia 21.0674
rfoot -36.4316 -25.279
rtoes -28.4658
lfemur -47.6044 1.82675 -17.2413
ltibia 74.9556
lfoot -23.0968 -5.44641
ltoes -3.65804
4061
root -4.47561 14.2866 -14.3003 -630.785 -87.4787 631.726
lowerback 13.3055 4.22951 -3.47853
upperback -2.33679 5.24274 1.78584
thorax -10.516 2.77936 2.71567
lowerneck -12.1373 -5.10628 -1.62369
upperneck 19.3624 -7.32014 1.85851
head 8.12729 -3.48623 0.0979006
rclavicle -3.71883e-014 -1.59525e-014
rhumerus -21.6829 18.1783 -84.0735
rradius 48.8168
rwrist -30.4509
rhand -12.9284 14.7959
rfingers 7.12502
rthumb 13.1622 -14.7686
lclavicle -3.71883e-014 -1.59525e-014
lhumerus 51.6405 -40.1911 39.0468
lradius 76.8274
lwrist 46.5279
lhand 4.98472 25.8994
lfingers 7.12502
lthumb 30.3554 53.4217
rfemur 21.3362 0.305783 12.4899
rtibia 20.976
rfoot -36.3309 -25.361
rtoes -28.7669
lfemur -47.6277 1.72652 -17.176
ltibia 75.0208
lfoot -23.2166 -5.82083
ltoes -3.49823
4062
root -4.47924 14.2869 -14.2963 -632.336 -87.3683 633.267
lowerback 13.3654 4.29313 -3.3346
upperback -2.36464 5.3456 1.73375
thorax -10.5708 2.81811 2.54962
lowerneck -11.9569 -5.14628 -1.49057
upperneck 19.1072 -7.4062 1.9337
head 8.0092 -3.51445 0.101257
rclavicle -3.31722e-014 -2.03754e-015
rhumerus -21.7303 17.8438 -84.1914
rradius 48.9098
rwrist -30.6377
rhand -12.5907 14.6446
rfingers 7.12502
rthumb 13.4877 -14.8986
lclavicle -3.31722e-014 -2.03754e-015
lhumerus 51.8819 -40.3694 38.7002
lradius 77.0845
lwrist 46.542
lhand 4.42462 26.1584
lfingers 7.12502
lthumb 29.821 53.7779
rfemur 21.4311 0.413101 12.7083
rtibia 20.8858
rfoot -36.3424 -25.7075
rtoes -28.9436
lfemur -47.6459 1.49084 -17.0824
ltibia 75.0611
lfoot -23.3694 -5.82201
ltoes -4.75819
4063
root -4.48125 14.2858 -14.2989 -633.544 -87.1873 634.493
lowerback 13.422 4.39412 -3.20321
upperback -2.39502 5.50263 1.74102
thorax -10.6379 2.88566 2.44192
lowerneck -11.8948 -5.205 -1.32739
upperneck 18.9798 -7.49939 1.87109
head 7.94833 -3.55464 0.048708
rclavicle 3.05367e-014 5.96354e-015
rhumerus -21.7332 17.5092 -84.1766
rradius 48.945
rwrist -30.7767
rhand -12.4758 14.5712
rfingers 7.12502
rthumb 13.5985 -14.9646
lclavicle 3.05367e-014 5.96354e-015
lhumerus 52.2507 -40.5523 38.4933
lradius 77.0984
lwrist 46.4788
lhand 4.36787 26.0654
lfingers 7.12502
lthumb 29.7668 53.6947
rfemur 21.4796 0.579878 13.0697
rtibia 20.7939
rfoot -36.3636 -25.9333
rtoes -28.887
lfemur -47.7323 1.47621 -16.8899
ltibia 75.1083
lfoot -23.3322 -5.07074
ltoes -6.78979
4064
root -4.48136 14.2846 -14.2972 -634.297 -87.1901 635.352
lowerback 13.3651 4.46067 -3.19208
upperback -2.41348 5.5893 1.67722
thorax -10.6239 2.92436 2.34919
lowerneck -12.0407 -5.29785 -1.22181
upperneck 19.0626 -7.63781 1.80873
head 7.99754 -3.61568 -0.00907574
rclavicle -2.07606e-014 -1.49089e-016
rhumerus -21.6612 17.2755 -84.2447
rradius 48.9589
rwrist -30.8885
rhand -12.397 14.4845
rfingers 7.12502
rthumb 13.6744 -15.0463
lclavicle -2.07606e-014 -1.49089e-016
lhumerus 52.4289 -40.5082 38.5412
lradius 76.8397
lwrist 45.6981
lhand 5.41529 25.3144
lfingers 7.12502
lthumb 30.766 52.7602
rfemur 21.4137 0.643436 13.1407
rtibia 20.7506
rfoot -36.4205 -25.9145
rtoes -28.6943
lfemur -47.8583 1.57672 -16.9292
ltibia 75.099
lfoot -23.2841 -4.22581
ltoes -8.58303
4065
root -4.48113 14.2831 -14.2908 -636.057 -87.1458 637.188
lowerback 13.3712 4.39721 -3.08683
upperback -2.44149 5.51706 1.62437
thorax -10.6361 2.88183 2.24909
lowerneck -12.1992 -5.30803 -1.16428
upperneck 19.2558 -7.66958 1.7885
head 8.08781 -3.62499 -0.0366373
rclavicle 1.48157e-015 -7.54139e-015
rhumerus -21.6351 17.5657 -84.5328
rradius 49.0013
rwrist -30.9214
rhand -12.6984 14.4459
rfingers 7.12502
rthumb 13.3839 -15.1042
lclavicle 1.48157e-015 -7.54139e-015
lhumerus 52.2678 -40.3445 38.4736
lradius 76.7622
lwrist 45.1336
lhand 6.00293 24.9851
lfingers 7.12502
lthumb 31.3261 52.3239
rfemur 21.3818 0.639343 13.2358
rtibia 20.7412
rfoot -36.3024 -26.2198
rtoes -29.0577
lfemur -47.9681 1.52241 -16.9111
ltibia 75.1315
lfoot -23.232 -4.25161
ltoes -7.90492
4066
root -4.48438 14.281 -14.2897 -637.706 -86.9507 638.82
lowerback 13.4001 4.31371 -2.95088
upperback -2.41828 5.42916 1.64602
thorax -10.6087 2.83161 2.21654
lowerneck -12.1088 -5.19969 -1.1244
upperneck 19.0997 -7.54302 1.90028
head 8.02069 -3.55395 0.0125214
rclavicle 2.01308e-014 -8.82107e-016
rhumerus -21.586 17.9347 -84.8696
rradius 49.0763
rwrist -30.9458
rhand -13.0077 14.3141
rfingers 7.12502
rthumb 13.0858 -15.2553
lclavicle 2.01308e-014 -8.82107e-016
lhumerus 52.0347 -40.1062 38.3781
lradius 76.7869
lwrist 44.4688
lhand 6.6399 24.6704
lfingers 7.12502
lthumb 31.9329 51.8898
rfemur 21.4369 0.65095 13.4944
rtibia 20.7352
rfoot -36.216 -26.2442
rtoes -29.1938
lfemur -48.0233 1.52636 -16.6889
ltibia 75.2009
lfoot -23.188 -4.70132
ltoes -6.38146
4067
root -4.48827 14.2785 -14.2876 -638.949 -86.8277 640.079
lowerback 13.3872 4.29062 -2.86988
upperback -2.41014 5.41283 1.6533
thorax -10.5834 2.81887 2.1843
lowerneck -12.0162 -5.15622 -1.23162
upperneck 18.948 -7.49642 2.10837
head 7.96583 -3.52181 0.107881
rclavicle 3.69615e-016 4.64659e-015
rhumerus -21.4812 17.9314 -85.0494
rradius 49.0365
rwrist -31.1213
rhand -13.0268 14.2358
rfingers 7.12502
rthumb 13.0673 -15.3349
lclavicle 3.69615e-016 4.64659e-015
lhumerus 51.9738 -39.9063 38.427
lradius 76.5473
lwrist 43.7337
lhand 7.7519 24.0152
lfingers 7.12502
lthumb 32.9911 51.0173
rfemur 21.4758 0.605654 13.6219
rtibia 20.7079
rfoot -36.1669 -26.1677
rtoes -29.1751
lfemur -48.1161 1.62595 -16.5724
ltibia 75.2902
lfoot -23.149 -5.22152
ltoes -5.19332
4068
root -4.49049 14.2765 -14.2839 -639.104 -86.8471 640.231
lowerback 13.4089 4.32058 -2.86405
upperback -2.40513 5.44828 1.60231
thorax -10.5869 2.8333 2.11631
lowerneck -12.1168 -5.24602 -1.49664
upperneck 19.0894 -7.6344 2.38922
head 8.05628 -3.57614 0.221967
rclavicle 1.97263e-014 -5.889e-015
rhumerus -21.4175 17.7836 -85.2283
rradius 48.9627
rwrist -31.2007
rhand -12.9632 14.2495
rfingers 7.12502
rthumb 13.1286 -15.3172
lclavicle 1.97263e-014 -5.889e-015
lhumerus 52.0508 -39.9952 38.3325
lradius 76.6126
lwrist 44.1086
lhand 6.89307 24.6967
lfingers 7.12502
lthumb 32.1739 51.8676
rfemur 21.5283 0.702327 13.6501
rtibia 20.6588
rfoot -36.1405 -26.3576
rtoes -29.3861
lfemur -48.1095 1.69032 -16.6323
ltibia 75.3157
lfoot -23.2758 -5.24768
ltoes -5.80089
4069
root -4.49335 14.2728 -14.2802 -639.243 -86.7899 640.353
lowerback 13.4693 4.34036 -2.85988
upperback -2.42265 5.47591 1.61906
thorax -10.6452 2.84702 2.12077
lowerneck -12.1272 -5.28342 -1.57144
upperneck 19.1747 -7.67724 2.39216
head 8.09068 -3.60069 0.228611
rclavicle 8.6712e-014 9.16894e-015
rhumerus -21.4427 17.8637 -85.3661
rradius 49.1093
rwrist -31.6935
rhand -12.8394 14.0479
rfingers 7.12502
rthumb 13.248 -15.5111
lclavicle 8.6712e-014 9.16894e-015
lhumerus 52.1399 -40.1397 38.1373
lradius 76.9057
lwrist 45.0686
lhand 5.17056 25.8682
lfingers 7.12502
lthumb 30.5326 53.3577
rfemur 21.6 0.747666 13.7215
rtibia 20.6001
rfoot -36.2175 -26.4524
rtoes -29.1051
lfemur -48.1032 1.62653 -16.6296
ltibia 75.3292
lfoot -23.3942 -4.75564
ltoes -7.48096
